<?xml version="1.0" encoding="iso-8859-1"?>

<svg fill="#000000" height="50px" width="50px" version="1.1" id="Layer_1" xmlns="http://www.w3.org/2000/svg" xmlns:xlink="http://www.w3.org/1999/xlink" 
	 viewBox="0 0 496 496" xml:space="preserve">
<g>
	<g>
		<g>
			<path d="M267.2,198.4L280,208h-17.472c-42.496,0-83.64,12.464-119,36.032C83.712,283.912,48,350.64,48,422.528V424h16v-1.472
				c0-66.528,33.048-128.28,88.408-165.184c32.728-21.816,70.8-33.344,110.12-33.344H280l-12.8,9.6l9.592,12.8l40.536-30.4
				L276.8,185.6L267.2,198.4z"/>
			<path d="M80,256c17.648,0,32-14.352,32-32s-14.352-32-32-32s-32,14.352-32,32S62.352,256,80,256z M80,208c8.824,0,16,7.176,16,16
				c0,8.824-7.176,16-16,16s-16-7.176-16-16C64,215.176,71.176,208,80,208z"/>
			<path d="M248,264c-17.648,0-32,14.352-32,32s14.352,32,32,32s32-14.352,32-32S265.648,264,248,264z M248,312
				c-8.824,0-16-7.176-16-16c0-8.824,7.176-16,16-16c8.824,0,16,7.176,16,16C264,304.824,256.824,312,248,312z"/>
			<polygon points="170.344,362.344 148,384.688 125.656,362.344 114.344,373.656 136.688,396 114.344,418.344 125.656,429.656 
				148,407.312 170.344,429.656 181.656,418.344 159.312,396 181.656,373.656 			"/>
			<path d="M496,288c0-27.264-12.472-51.672-32-67.832V176h16v-48h-14.048L271.48,26.872C269.008,11.672,255.896,0,240,0
				s-29.008,11.672-31.48,26.872L14.048,128H0v48h16v272H0v48h480v-48h-16v-16v-32h16v-16h-16v-16h16v-16h-11.904
				C485.872,335.4,496,312.608,496,288z M240,16c8.824,0,16,7.176,16,16s-7.176,16-16,16c-8.824,0-16-7.176-16-16S231.176,16,240,16
				z M210.36,43.944C215.112,55.68,226.584,64,240,64s24.888-8.32,29.64-20.056L431.28,128H48.72L210.36,43.944z M16,144h448v16H16
				V144z M352,368v16h-16v16h16v32h96v16H32V176h416v33.712c-12.016-6.16-25.592-9.712-40-9.712c-48.52,0-88,39.48-88,88
				c0,24.608,10.128,47.4,27.904,64H336v16H352z M448,400v16h-80v-16H448z M368,384v-16h80v16H368z M464,480H16v-16h448V480z
				 M451.184,345.504L448,347.896V352h-32v-33.136c13.768-3.576,24-16,24-30.864c0-17.648-14.352-32-32-32s-32,14.352-32,32
				c0,14.864,10.232,27.288,24,30.864V352h-32v-4.104l-3.184-2.4C346.504,331.72,336,310.76,336,288c0-39.696,32.296-72,72-72
				c39.704,0,72,32.304,72,72C480,310.76,469.496,331.72,451.184,345.504z M408,304c-8.824,0-16-7.176-16-16c0-8.824,7.176-16,16-16
				c8.824,0,16,7.176,16,16C424,296.824,416.824,304,408,304z"/>
		</g>
	</g>
</g>
</svg>